<svg width="80" height="80" fill="none" xmlns="http://www.w3.org/2000/svg"><rect width="80" height="80" rx="15" fill="#232323"/><g clip-path="url(#clip0_293_788)"><rect width="14.4" height="2.769" rx=".7" transform="matrix(1 0 0 -1 25.6 44.154)" fill="#fff"/><rect x="49" y="41.385" width="5.4" height="2.769" rx=".7" fill="#fff"/><path d="M47.413 48.209c0-.068.013-.12.026-.153h5.859a.411.411 0 01.027.153v1.305a.4.4 0 01-.027.153h-5.859a.411.411 0 01-.026-.153V48.21zm-.068-1.153c-.34 0-.586.208-.723.415-.14.211-.21.474-.21.738v1.305c0 .265.07.527.21.738.137.207.383.415.723.415h6.048c.34 0 .585-.208.722-.415.14-.21.21-.473.21-.738V48.21c0-.265-.07-.527-.21-.738-.137-.207-.382-.415-.722-.415h-6.048zM26.677 48.21c0-.068.013-.12.026-.153h9.315a.411.411 0 01.027.153v1.305a.4.4 0 01-.027.153h-9.315a.411.411 0 01-.026-.153V48.21zm-.068-1.153c-.34 0-.586.208-.723.415-.14.211-.21.474-.21.738v1.305c0 .265.07.527.21.738.137.207.383.415.723.415h9.504c.34 0 .585-.208.722-.415.14-.21.21-.473.21-.738V48.21c0-.265-.07-.527-.21-.738-.137-.207-.382-.415-.722-.415h-9.504zM24.449 57.5c-.256 0-.551-.157-.805-.54-.252-.38-.423-.934-.423-1.57V29.78h33.56v25.61c0 .636-.172 1.19-.423 1.57-.254.383-.55.54-.805.54H24.449zm-.864-35.554h32.832c.018 0 .096.011.194.159.095.143.17.37.17.647v3.416H23.22v-3.416c0-.277.075-.504.17-.647.097-.148.176-.159.194-.159z" stroke="#fff"/></g><defs><clipPath id="clip0_293_788"><path fill="#fff" transform="translate(22 22)" d="M0 0h36v36H0z"/></clipPath></defs></svg>