<svg width="80" height="80" fill="none" xmlns="http://www.w3.org/2000/svg"><rect width="80" height="80" rx="15" fill="#232323"/><path d="M52 37.273C52 46.818 40 55 40 55s-12-8.182-12-17.727c0-3.255 1.264-6.377 3.515-8.678A11.866 11.866 0 0140 25c3.183 0 6.235 1.293 8.485 3.595A12.416 12.416 0 0152 37.273z" stroke="#fff" stroke-width="1.3" stroke-linecap="round" stroke-linejoin="round"/><path d="M40 41.364c2.21 0 4-1.832 4-4.091 0-2.26-1.79-4.091-4-4.091s-4 1.831-4 4.09c0 2.26 1.79 4.092 4 4.092z" stroke="#fff" stroke-width="1.3" stroke-linecap="round" stroke-linejoin="round"/></svg>