<svg width="20" height="13" fill="none" xmlns="http://www.w3.org/2000/svg"><g clip-path="url(#clip0_104_2240)"><rect width="8" height="1" rx=".5" transform="matrix(1 0 0 -1 2 8)" fill="#fff"/><rect x="15" y="7" width="3" height="1" rx=".5" fill="#fff"/><path d="M14.08 8.729c-.4 0-.74.32-.74.735v.472c0 .415.34.736.74.736h3.36c.4 0 .74-.321.74-.736v-.472a.738.738 0 00-.74-.735h-3.36zm-11.52 0c-.4 0-.74.32-.74.735v.472c0 .415.34.736.74.736h5.28c.4 0 .74-.321.74-.736v-.472a.738.738 0 00-.74-.735H2.56zM1.36 12.5a.452.452 0 01-.46-.443V3.13h18.2v8.928a.452.452 0 01-.46.443H1.36zM.9 1.186V.3h18.2v.886H.9z" stroke="#fff"/></g><defs><clipPath id="clip0_104_2240"><path fill="#fff" d="M0 0h20v13H0z"/></clipPath></defs></svg>