<svg width="15" height="19" fill="none" xmlns="http://www.w3.org/2000/svg"><path d="M7.862 0c.264.063.537.107.796.194 1.492.52 2.437 1.787 2.538 3.385 0 .029.01.058.014.116h2.101c.394 0 .586.175.624.568.13 1.457.254 2.918.379 4.375l.46 5.205c.077.85.178 1.7.216 2.55.039.873-.37 1.544-1.055 2.044-.542.393-1.16.553-1.828.553-2.398-.005-4.801 0-7.2 0-.753 0-1.501.025-2.254-.01-.95-.038-1.732-.436-2.284-1.242-.379-.554-.417-1.175-.35-1.826.14-1.345.245-2.695.36-4.045.115-1.326.235-2.646.35-3.972.106-1.175.206-2.35.307-3.525.005-.053.005-.112.014-.165.048-.34.235-.51.58-.515.644-.005 1.282 0 1.924 0h.221c.029-.578.14-1.112.393-1.607C4.773.933 5.708.253 6.975.04c.052-.01.105-.024.158-.039h.73zM3.79 4.758H2.058c-.005.04-.015.068-.015.102-.144 1.661-.292 3.327-.436 4.987-.187 2.166-.374 4.336-.566 6.502a1.29 1.29 0 00.355 1.015c.403.437.92.587 1.492.587 3.07.005 6.145.005 9.215 0 .345 0 .676-.058.992-.213.504-.248.945-.777.86-1.457-.054-.408-.078-.826-.111-1.238-.125-1.457-.254-2.918-.38-4.375l-.43-4.929c-.03-.325-.063-.65-.092-.97h-1.736v.179c0 .47.004.942-.005 1.408a.507.507 0 01-.518.51.52.52 0 01-.509-.505c-.005-.097 0-.2 0-.296V4.768H4.826v.122c0 .48.004.966 0 1.447-.005.31-.23.534-.518.529-.283 0-.5-.224-.509-.52-.005-.092 0-.184 0-.276-.01-.437-.01-.87-.01-1.312zm6.38-1.073c-.067-1.014-.503-1.791-1.367-2.282-.935-.529-1.88-.49-2.777.102-.763.505-1.151 1.248-1.2 2.18h5.344z" fill="#fff"/></svg>